ModelForces
version=1
nRows=4
nColumns=67
inDegrees=no

This file contains the forces exerted on a model during a simulation.

A force is a generalized force, meaning that it can be either a force (N) or a torque (Nm).

Units are S.I. units (second, meters, Newtons, ...)
Angles are in degrees.

endheader
time	hamstrings_r	bifemsh_r	glut_max_r	iliopsoas_r	rect_fem_r	vasti_r	gastroc_r	soleus_r	tib_ant_r	hamstrings_l	bifemsh_l	glut_max_l	iliopsoas_l	rect_fem_l	vasti_l	gastroc_l	soleus_l	tib_ant_l	foot_r.ground.force.X	foot_r.ground.force.Y	foot_r.ground.force.Z	foot_r.ground.torque.X	foot_r.ground.torque.Y	foot_r.ground.torque.Z	foot_r.calcn_r.force.X	foot_r.calcn_r.force.Y	foot_r.calcn_r.force.Z	foot_r.calcn_r.torque.X	foot_r.calcn_r.torque.Y	foot_r.calcn_r.torque.Z	foot_r.toes_r.force.X	foot_r.toes_r.force.Y	foot_r.toes_r.force.Z	foot_r.toes_r.torque.X	foot_r.toes_r.torque.Y	foot_r.toes_r.torque.Z	foot_l.ground.force.X	foot_l.ground.force.Y	foot_l.ground.force.Z	foot_l.ground.torque.X	foot_l.ground.torque.Y	foot_l.ground.torque.Z	foot_l.calcn_l.force.X	foot_l.calcn_l.force.Y	foot_l.calcn_l.force.Z	foot_l.calcn_l.torque.X	foot_l.calcn_l.torque.Y	foot_l.calcn_l.torque.Z	foot_l.toes_l.force.X	foot_l.toes_l.force.Y	foot_l.toes_l.force.Z	foot_l.toes_l.torque.X	foot_l.toes_l.torque.Y	foot_l.toes_l.torque.Z	HipLimit_r	PotentialEnergy	HipLimit_l	PotentialEnergy	KneeLimit_r	PotentialEnergy	KneeLimit_l	PotentialEnergy	AnkleLimit_r	PotentialEnergy	AnkleLimit_l	PotentialEnergy
      0.00000000	    194.30030504	     42.72881123	    171.78735096	    158.01207984	     99.03297054	    436.79388414	    273.01783257	    370.00599517	    104.05059952	    194.30030504	     42.72881123	    171.78735096	    158.01207984	     99.03297054	    436.79388414	    273.01783257	    370.00599517	    104.05059952	     -0.00000000	   -784.16841702	      0.00000000	     72.21456981	     -0.00000000	     21.72171239	      0.00000000	    297.23033562	      0.00000000	      0.00000000	      0.00000000	      9.49997926	      0.00000000	    486.93808140	      0.00000000	      0.00000000	      0.00000000	     15.56335650	     -0.00000000	   -784.16841702	      0.00000000	    -72.21456981	      0.00000000	     21.72171239	      0.00000000	    297.23033562	      0.00000000	      0.00000000	      0.00000000	      9.49997926	      0.00000000	    486.93808140	      0.00000000	      0.00000000	      0.00000000	     15.56335650	      0.00000000	      0.00000000	      0.00000000	      0.00000000	      0.00000000	      0.00000000	      0.00000000	      0.00000000	      0.00000000	      0.00000000	      0.00000000	      0.00000000
      0.00000769	    194.71492369	     43.12356768	    177.52763998	    158.39288993	     98.12426762	    441.25021835	    273.19186832	    370.37963735	    104.35667485	    192.65790445	     43.12356768	    177.12191811	    152.61114468	     98.12426762	    441.25021834	    272.29706277	    368.52122525	    104.35667463	      6.08832831	   -780.35891477	      0.00000000	     71.86189516	      0.56086506	     22.02978879	     -2.13454099	    297.50412575	      0.00000000	      0.00000000	      0.00000000	      9.51402091	     -3.95378732	    482.85478902	      0.00000000	      0.00000000	      0.00000000	     15.46426296	      6.09297486	   -780.35447590	      0.00000000	    -71.86148421	     -0.56129318	     22.03010678	     -2.13611035	    297.50445434	      0.00000000	      0.00000000	      0.00000000	      9.51403531	     -3.95686451	    482.85002155	      0.00000000	      0.00000000	      0.00000000	     15.46413503	      0.00000000	      0.00000000	      0.00000000	      0.00000000	      0.00000000	      0.00000000	      0.00000000	      0.00000000	      0.00000000	      0.00000000	      0.00000000	      0.00000000
      0.00001538	    195.21305674	     43.59918007	    184.54161999	    158.84985764	     97.05701814	    446.62714428	    273.40111848	    370.82897754	    104.72415476	    190.72554681	     43.59918007	    183.63047786	    146.70499001	     97.05701815	    446.62714421	    271.43977222	    366.75820627	    104.72415295	     11.93123509	   -776.62112834	      0.00000000	     71.51586097	      1.09909661	     22.32944379	     -4.20614754	    297.77167154	      0.00000000	      0.00000000	      0.00000000	      9.52770498	     -7.72508755	    478.84945680	      0.00000000	      0.00000000	      0.00000000	     15.36620778	     11.95380099	   -776.59907674	      0.00000000	    -71.51381943	     -1.10117560	     22.33101379	     -4.21387846	    297.77330418	      0.00000000	      0.00000000	      0.00000000	      9.52777632	     -7.73992253	    478.82577256	      0.00000000	      0.00000000	      0.00000000	     15.36556866	      0.00000000	      0.00000000	      0.00000000	      0.00000000	      0.00000000	      0.00000000	      0.00000000	      0.00000000	      0.00000000	      0.00000000	      0.00000000	      0.00000000
      0.00005384	    197.71344599	     46.00854909	    221.67019974	    161.13492252	     92.06843877	    473.99507085	    274.45393248	    373.09134096	    106.56480369	    181.64479005	     46.00854889	    217.92787452	    124.09470120	     92.06843984	    473.99507727	    267.27332329	    358.23495243	    106.56471250	     37.83900548	   -758.95315512	      0.00000000	     69.88022428	      3.48531691	     23.71139645	    -13.69545913	    299.02089311	      0.00000000	      0.00000000	      0.00000000	      9.59111565	    -24.14354635	    459.93226201	      0.00000000	      0.00000000	      0.00000000	     14.89197168	     38.10794120	   -758.65659895	      0.00000000	    -69.85276912	     -3.51008671	     23.73186589	    -13.79430800	    299.04285430	      0.00000000	      0.00000000	      0.00000000	      9.59206230	    -24.31363320	    459.61374465	      0.00000000	      0.00000000	      0.00000000	     14.88314226	      0.00000000	      0.00000000	      0.00000000	      0.00000000	      0.00000000	      0.00000000	      0.00000000	      0.00000000	      0.00000000	      0.00000000	      0.00000000	      0.00000000
